<svg xmlns="http://www.w3.org/2000/svg" width="142" height="38" fill="none" viewBox="0 0 142 38"><path fill="#000" d="M7.75201 37.876C7.16934 37.968 6.46401 37.9527 5.63601 37.83C4.80801 37.738 3.91867 37.5693 2.96801 37.324C2.47734 37.1707 2.12467 36.9867 1.91001 36.772C1.72601 36.5573 1.40401 36.1587 0.944006 35.576C0.637339 35.116 0.438006 34.5947 0.346006 34.012C0.284673 33.4293 0.361339 32.908 0.576006 32.448C0.821339 31.988 1.22001 31.712 1.77201 31.62C2.01734 31.5587 2.30867 31.62 2.64601 31.804C3.01401 31.9573 3.39734 32.1567 3.79601 32.402C4.44001 32.77 5.13001 33.138 5.86601 33.506C6.60201 33.9047 7.27667 34.058 7.89001 33.966C8.31934 33.874 8.82534 33.8127 9.40801 33.782C10.0213 33.782 10.604 33.736 11.156 33.644C11.7387 33.552 12.1987 33.3833 12.536 33.138C14.1613 32.034 15.3727 31.16 16.17 30.516C16.9673 29.8413 17.366 29.504 17.366 29.504C17.4273 29.3813 17.5347 29.2893 17.688 29.228C17.872 29.136 18.0867 29.044 18.332 28.952C18.516 28.768 18.8073 28.4767 19.206 28.078C19.6047 27.6487 19.988 27.2347 20.356 26.836C20.7547 26.4373 21 26.2073 21.092 26.146C21.1533 25.87 21.2147 25.6553 21.276 25.502C21.3373 25.318 21.368 25.134 21.368 24.95C21.6133 24.7047 21.9353 24.1987 22.334 23.432C22.7633 22.6347 23.1927 21.7607 23.622 20.81C24.0513 19.8287 24.358 18.9393 24.542 18.142C24.9407 16.4553 25.0787 14.922 24.956 13.542C24.8333 12.162 24.4807 10.92 23.898 9.816C23.3153 8.712 22.5333 7.746 21.552 6.918C21.2147 6.642 20.7547 6.35067 20.172 6.044C19.5893 5.70667 18.9913 5.4 18.378 5.124C17.7647 4.81734 17.2127 4.58734 16.722 4.434C16.262 4.28067 15.986 4.21934 15.894 4.25C15.7713 4.28067 15.526 4.756 15.158 5.676C14.8207 6.56534 14.3913 7.71534 13.87 9.126C13.3793 10.5367 12.8427 12.0547 12.26 13.68C11.708 15.2747 11.1713 16.7927 10.65 18.234C10.4967 18.8167 10.2973 19.43 10.052 20.074C9.83734 20.718 9.65334 21.2853 9.50001 21.776C9.34667 22.236 9.27001 22.5427 9.27001 22.696C8.93267 23.2173 8.58001 24.0147 8.21201 25.088C7.84401 26.1613 7.53734 27.6947 7.29201 29.688C7.01601 30.7307 6.81667 31.6047 6.69401 32.31C6.57134 32.9847 6.44867 33.3067 6.32601 33.276C6.32601 33.276 6.31067 33.414 6.28001 33.69C6.24934 33.9967 6.18801 34.196 6.09601 34.288C6.09601 34.472 5.91201 34.5947 5.54401 34.656C5.17601 34.7173 4.74667 34.6407 4.25601 34.426C3.76534 34.2113 3.30534 33.7973 2.87601 33.184C2.78401 32.8467 2.70734 32.356 2.64601 31.712C2.61534 31.0373 2.72267 30.2553 2.96801 29.366C3.12134 28.7833 3.33601 28.032 3.61201 27.112C3.88801 26.192 4.19467 25.2413 4.53201 24.26C4.86934 23.2787 5.17601 22.374 5.45201 21.546C5.75867 20.718 5.97334 20.1047 6.09601 19.706C6.31067 19.1847 6.61734 18.2033 7.01601 16.762C7.26134 15.9647 7.50667 15.1673 7.75201 14.37C8.02801 13.5727 8.28867 12.8673 8.53401 12.254C8.77934 11.61 8.94801 11.196 9.04001 11.012C9.19334 10.6133 9.37734 9.96934 9.59201 9.08C9.83734 8.16 10.2053 7.11734 10.696 5.952L11.018 4.434L10.512 4.204C10.144 4.32667 9.85267 4.37267 9.63801 4.342C9.45401 4.28067 9.33134 4.23467 9.27001 4.204C9.08601 4.26534 8.84067 4.21934 8.53401 4.066C8.25801 3.882 7.99734 3.652 7.75201 3.376C7.53734 3.1 7.39934 2.87 7.33801 2.686C7.27667 2.56334 7.23067 2.41 7.20001 2.226C7.20001 2.01134 7.20001 1.904 7.20001 1.904C7.23067 1.72 7.49134 1.536 7.98201 1.352C8.47267 1.13734 9.10134 0.938002 9.86801 0.754003C10.6653 0.570003 11.5087 0.432003 12.398 0.340002C13.2873 0.248002 14.1153 0.232669 14.882 0.294003C15.6793 0.355336 16.6607 0.539335 17.826 0.846001C18.9913 1.15267 19.988 1.45934 20.816 1.766C21.7973 2.134 22.8553 2.76267 23.99 3.652C25.1247 4.54134 26.152 5.59934 27.072 6.826C28.0227 8.05267 28.6513 9.34067 28.958 10.69C29.05 11.058 29.142 11.5793 29.234 12.254C29.326 12.9287 29.372 13.588 29.372 14.232C29.4027 14.8453 29.3413 15.244 29.188 15.428C29.1267 15.5507 29.0807 15.704 29.05 15.888C29.05 16.0413 29.1113 16.1487 29.234 16.21C29.2033 16.302 29.096 16.6547 28.912 17.268C28.728 17.8507 28.5593 18.3567 28.406 18.786C28.3447 19.5833 28.13 20.5033 27.762 21.546C27.4247 22.5887 27.0413 23.5853 26.612 24.536C26.2133 25.456 25.8607 26.1767 25.554 26.698C25.4313 26.698 25.3087 26.7287 25.186 26.79C25.094 26.8207 25.1093 26.8513 25.232 26.882C25.232 27.0353 25.0633 27.3267 24.726 27.756C24.6033 27.848 24.404 28.078 24.128 28.446C23.8827 28.7833 23.6833 29.0133 23.53 29.136C23.4993 29.3507 23.4073 29.5347 23.254 29.688C23.1007 29.8107 22.9627 29.872 22.84 29.872C22.84 29.872 22.8093 29.872 22.748 29.872C22.7173 29.872 22.702 29.9333 22.702 30.056C22.4567 30.424 22.0427 30.8993 21.46 31.482C20.8773 32.0647 20.218 32.6627 19.482 33.276C18.746 33.8893 18.01 34.4567 17.274 34.978C16.538 35.4993 15.8633 35.8827 15.25 36.128C14.9433 36.3427 14.6213 36.5113 14.284 36.634C13.9467 36.7873 13.6247 36.9407 13.318 37.094C13.1647 37.2167 12.72 37.324 11.984 37.416C11.248 37.508 10.466 37.5847 9.63801 37.646C8.84067 37.7073 8.21201 37.784 7.75201 37.876Z"/><path fill="#000" d="M30.7021 32.034C30.5794 31.7887 30.3034 31.5433 29.8741 31.298C29.4754 31.0527 29.2761 30.8687 29.2761 30.746C29.2761 30.6233 29.1994 30.4393 29.0461 30.194C28.9234 29.918 28.8007 29.7187 28.6781 29.596C28.5247 29.412 28.5707 28.9673 28.8161 28.262C29.0614 27.526 29.4294 26.6367 29.9201 25.594C30.4107 24.5513 30.9474 23.4933 31.5301 22.42C31.7754 22.1747 32.0207 21.8527 32.2661 21.454C32.5114 21.0553 32.6954 20.7947 32.8181 20.672C32.8181 20.5493 32.8641 20.442 32.9561 20.35C33.0481 20.2273 33.1554 20.166 33.2781 20.166L33.6461 19.43C33.7074 19.3073 33.8914 19.062 34.1981 18.694C34.5354 18.326 34.9341 17.9273 35.3941 17.498C35.8541 17.038 36.3141 16.6087 36.7741 16.21C37.2647 15.8113 37.6634 15.52 37.9701 15.336C38.6141 14.9067 39.2734 14.7073 39.9481 14.738C40.6534 14.7687 41.2514 14.9833 41.7421 15.382C41.8341 15.474 42.0334 15.658 42.3401 15.934C42.6774 16.21 43.0454 16.5167 43.4441 16.854C43.8734 17.1913 44.2414 17.498 44.5481 17.774L46.2501 19.292L45.4681 21.592C45.0694 22.8187 44.9621 23.892 45.1461 24.812C45.3301 25.732 45.6214 26.5293 46.0201 27.204C46.1734 27.5413 46.3727 27.802 46.6181 27.986C46.8941 28.17 47.2467 28.2927 47.6761 28.354C47.9214 28.3847 48.1514 28.4767 48.3661 28.63C48.5807 28.7833 48.6881 29.0287 48.6881 29.366C48.6881 30.102 48.5501 30.6387 48.2741 30.976C48.0287 31.2827 47.7527 31.4667 47.4461 31.528C46.4341 31.6507 45.4681 31.5433 44.5481 31.206C43.6281 30.8687 42.8001 29.9947 42.0641 28.584C41.9414 28.4 41.7727 28.0627 41.5581 27.572C41.3741 27.0507 41.2667 26.7133 41.2361 26.56C41.1134 26.7133 40.9447 26.9127 40.7301 27.158C40.5461 27.3727 40.3621 27.572 40.1781 27.756C38.0007 29.964 36.1301 31.4053 34.5661 32.08C33.0327 32.724 31.7447 32.7087 30.7021 32.034ZM33.2321 28.216C33.4467 28.2467 33.7841 28.1393 34.2441 27.894C34.7041 27.618 35.3174 27.1733 36.0841 26.56C37.1267 25.6707 37.9854 24.9347 38.6601 24.352C39.3347 23.7693 39.9941 23.018 40.6381 22.098L41.6501 20.442C41.3434 19.7367 41.0674 19.2767 40.8221 19.062C40.5767 18.8473 40.3314 18.74 40.0861 18.74C39.6874 18.74 39.2121 19.0007 38.6601 19.522C38.1081 20.0127 37.4794 20.7487 36.7741 21.73C36.0994 22.6807 35.3327 23.8767 34.4741 25.318C34.0754 25.9927 33.7687 26.652 33.5541 27.296C33.3394 27.9093 33.2321 28.216 33.2321 28.216Z"/><path fill="#000" d="M53.3933 32.954C52.6573 32.954 52.0133 32.5707 51.4613 31.804C50.94 31.0067 50.618 30.056 50.4953 28.952C50.526 28.7067 50.5567 28.354 50.5873 27.894C50.6487 27.434 50.71 26.9587 50.7714 26.468C50.894 25.8853 51.0627 25.134 51.2774 24.214C51.492 23.294 51.722 22.374 51.9674 21.454C52.2127 20.5033 52.4274 19.6907 52.6114 19.016C52.7954 18.3107 52.9027 17.8967 52.9333 17.774C53.1173 17.3447 53.5314 17.2373 54.1754 17.452C54.8194 17.6667 55.3713 18.1267 55.8313 18.832C56.0153 19.0773 56.1227 19.3687 56.1534 19.706C56.2147 20.0433 56.1687 20.534 56.0154 21.178C55.8927 21.822 55.6474 22.7727 55.2794 24.03C54.942 25.2567 54.6813 26.2533 54.4973 27.02C54.344 27.756 54.2827 28.538 54.3134 29.366C54.1907 30.7767 54.068 31.7427 53.9454 32.264C53.8227 32.7547 53.6387 32.9847 53.3933 32.954ZM57.6254 13.864C57.5027 13.956 57.38 14.002 57.2574 14.002C57.1654 13.9713 56.9967 13.8793 56.7514 13.726C56.5367 13.6953 56.2607 13.5573 55.9234 13.312C55.6167 13.036 55.3407 12.76 55.0953 12.484C54.8807 12.208 54.7733 12.0393 54.7733 11.978C54.7427 11.6713 54.758 11.1807 54.8194 10.506C54.9114 9.83134 55.08 9.20267 55.3254 8.62C55.6014 8.00667 55.9694 7.68467 56.4294 7.654C56.552 7.654 56.8127 7.71534 57.2113 7.838C57.6407 7.96067 58.0853 8.114 58.5453 8.298C58.7907 8.758 59.0207 9.356 59.2354 10.092C59.45 10.828 59.4653 11.5487 59.2813 12.254C59.128 12.9287 58.576 13.4653 57.6254 13.864Z"/><path fill="#000" d="M74.9346 31.896C74.26 31.8347 73.6927 31.6967 73.2327 31.482C72.8033 31.2367 72.4506 30.7613 72.1746 30.056C72.052 29.5653 71.9906 29.0593 71.9906 28.538C72.0213 27.986 72.0673 27.4647 72.1286 26.974C72.19 26.4527 72.2206 26.008 72.2206 25.64C72.2206 25.5787 72.2206 25.456 72.2206 25.272C72.2206 25.088 72.2206 24.9193 72.2206 24.766C72.1593 24.306 72.0366 24.03 71.8526 23.938C71.6993 23.8153 71.4233 23.8307 71.0247 23.984C70.3807 24.2907 69.6753 24.7047 68.9086 25.226C68.1726 25.7167 67.3906 26.2993 66.5626 26.974C65.7653 27.618 64.9373 28.308 64.0786 29.044C63.404 29.78 62.898 30.378 62.5606 30.838C62.254 31.298 61.932 31.528 61.5946 31.528C61.3493 31.6507 61.0886 31.62 60.8126 31.436C60.5366 31.252 60.2453 31.0373 59.9386 30.792C59.724 30.5467 59.4633 30.24 59.1566 29.872C58.8806 29.4733 58.712 29.2127 58.6506 29.09C58.6506 28.5993 58.6813 28.1547 58.7426 27.756C58.8346 27.3573 58.9573 26.9433 59.1106 26.514C59.2946 26.0847 59.5093 25.594 59.7546 25.042C59.8773 24.8273 59.9846 24.6127 60.0766 24.398C60.1993 24.1527 60.3373 23.892 60.4906 23.616C60.6133 23.1867 60.782 22.696 60.9966 22.144C61.242 21.592 61.472 21.0707 61.6866 20.58C62.024 19.7827 62.2846 19.0927 62.4686 18.51C62.6526 17.9273 62.806 17.2987 62.9286 16.624C62.898 16.5627 62.9133 16.4707 62.9746 16.348C63.036 16.2253 63.128 16.1487 63.2506 16.118H63.3426C63.5573 15.9647 63.956 15.9493 64.5387 16.072C65.152 16.164 65.612 16.3327 65.9186 16.578C66.5626 17.13 66.8693 17.8507 66.8386 18.74C66.808 19.6293 66.348 20.7947 65.4586 22.236C65.244 22.7267 65.014 23.1867 64.7686 23.616C64.554 24.0147 64.4466 24.2907 64.4466 24.444C64.4466 24.444 64.5693 24.352 64.8146 24.168C65.06 23.984 65.3513 23.7693 65.6886 23.524C66.026 23.248 66.3173 23.0333 66.5626 22.88C66.716 22.7267 67.0533 22.4507 67.5746 22.052C68.096 21.6227 68.6633 21.178 69.2766 20.718C69.89 20.258 70.3806 19.9053 70.7486 19.66C71.086 19.4147 71.5153 19.1693 72.0366 18.924C72.558 18.648 72.88 18.51 73.0026 18.51C73.3093 18.51 73.6773 18.6173 74.1066 18.832C74.5666 19.0467 74.9806 19.3073 75.3486 19.614C75.7473 19.89 75.9773 20.1507 76.0387 20.396C76.0387 20.5187 76.0233 20.6873 75.9926 20.902C75.962 21.086 75.9466 21.2547 75.9466 21.408C75.916 21.8987 75.9007 22.4967 75.9007 23.202C75.9313 23.8767 75.9466 24.5667 75.9466 25.272C75.9466 25.9467 75.8853 26.56 75.7626 27.112C75.7626 27.112 75.778 27.1427 75.8086 27.204C75.8393 27.2347 75.87 27.296 75.9007 27.388C75.87 27.4187 75.8546 27.48 75.8546 27.572C75.8853 27.6333 75.9007 27.664 75.9007 27.664C75.962 27.8787 76.0233 28.0933 76.0846 28.308C76.1766 28.5227 76.284 28.768 76.4066 29.044C76.5293 29.2893 76.6673 29.6113 76.8206 30.01C76.79 30.4087 76.56 30.8073 76.1306 31.206C75.732 31.574 75.3333 31.804 74.9346 31.896Z"/><path fill="#000" d="M86.2499 33.276C85.8206 33.1533 85.3913 32.9387 84.9619 32.632C84.5326 32.3253 84.0879 31.9727 83.6279 31.574C83.2599 31.0833 82.9993 30.6387 82.8459 30.24C82.6926 29.8107 82.6006 29.32 82.5699 28.768C82.5699 28.1853 82.5699 27.4493 82.5699 26.56C82.5699 26.192 82.6313 25.6707 82.7539 24.996C82.9073 24.3213 83.0606 23.616 83.2139 22.88C83.3979 22.144 83.5666 21.5 83.7199 20.948C83.8733 20.3653 83.9653 19.982 83.9959 19.798C84.0879 19.3993 83.9346 19.1693 83.5359 19.108C83.1373 19.0467 82.6926 19.0313 82.2019 19.062C81.7419 19.062 81.4353 19.016 81.2819 18.924C81.1593 18.8933 81.0979 18.74 81.0979 18.464C81.0979 18.1573 81.0979 18.004 81.0979 18.004C81.0979 17.8813 81.0366 17.8047 80.9139 17.774C80.7913 17.7127 80.6839 17.6053 80.5919 17.452C80.5306 17.3293 80.6073 17.0993 80.8219 16.762C81.0366 16.4247 81.3126 16.2253 81.6499 16.164C81.9259 16.1027 82.3399 16.0567 82.8919 16.026C83.4439 15.9647 83.9959 15.8573 84.5479 15.704C85.1306 15.52 85.5753 15.244 85.8819 14.876C86.1579 14.2013 86.4646 13.4807 86.8019 12.714C87.1393 11.9167 87.4613 11.2267 87.7679 10.644C88.0746 10.0307 88.2893 9.64734 88.4119 9.494C88.9333 9.218 89.4699 9.11067 90.0219 9.172C90.5739 9.20267 91.0033 9.46334 91.3099 9.954C91.4633 10.1687 91.5859 10.322 91.6779 10.414C91.8006 10.506 91.8466 10.644 91.8159 10.828C91.8159 11.012 91.6933 11.3493 91.4479 11.84C91.2333 12.3 90.8653 13.0207 90.3439 14.002C90.1906 14.3087 90.0526 14.5847 89.9299 14.83C89.8073 15.0447 89.7459 15.152 89.7459 15.152C89.8686 15.1827 90.0526 15.198 90.2979 15.198C90.5433 15.198 90.8499 15.1827 91.2179 15.152C91.5553 15.0907 91.9233 15.0447 92.3219 15.014C92.7206 14.9527 93.0733 14.9527 93.3799 15.014C94.0853 15.014 94.6066 15.2133 94.9439 15.612C95.2813 16.0107 95.4653 16.5167 95.4959 17.13C95.5573 17.4673 95.4346 17.7587 95.1279 18.004C94.8213 18.2493 94.2539 18.372 93.4259 18.372C93.1499 18.372 92.7513 18.3873 92.2299 18.418C91.7086 18.4487 91.1719 18.4793 90.6199 18.51C90.0679 18.5407 89.5926 18.5867 89.1939 18.648C88.8259 18.6787 88.6419 18.7247 88.6419 18.786C88.5499 18.8473 88.3966 19.0927 88.1819 19.522C87.9979 19.9207 87.7986 20.4113 87.5839 20.994C87.3999 21.5767 87.2313 22.1287 87.0779 22.65C86.8633 23.6927 86.7099 24.7047 86.6179 25.686C86.5259 26.6673 86.5106 27.526 86.5719 28.262C86.6639 28.9673 86.8479 29.4733 87.1239 29.78C87.3999 30.056 87.8139 30.056 88.3659 29.78C88.9486 29.4733 89.4853 29.1207 89.9759 28.722C90.5279 28.262 91.0033 28.124 91.4019 28.308C91.8006 28.4613 92.0459 28.7987 92.1379 29.32C92.2606 29.8107 92.1226 30.3473 91.7239 30.93C91.3559 31.5127 90.8346 32.0033 90.1599 32.402C89.4853 32.8007 88.7953 33.0767 88.0899 33.23C87.3846 33.414 86.7713 33.4293 86.2499 33.276Z"/><path fill="#000" d="M96.8784 32.31C96.6638 32.31 96.3724 32.1567 96.0044 31.85C95.6671 31.5433 95.4678 31.2673 95.4064 31.022C95.3144 30.7767 95.3144 30.424 95.4064 29.964C95.5291 29.4733 95.6978 28.906 95.9124 28.262C96.1578 27.25 96.3264 26.514 96.4184 26.054C96.5104 25.594 96.6024 25.1953 96.6944 24.858C96.7864 24.5207 96.9091 24.03 97.0624 23.386C97.2464 22.9873 97.3844 22.604 97.4764 22.236C97.5991 21.8373 97.7218 21.4387 97.8444 21.04C97.9978 20.6413 98.1664 20.2427 98.3504 19.844C98.5651 19.0467 98.8258 18.2953 99.1324 17.59C99.4698 16.854 99.7918 16.2407 100.098 15.75C100.16 15.658 100.298 15.4893 100.512 15.244C100.727 14.9987 100.896 14.876 101.018 14.876C101.264 14.6307 101.601 14.554 102.03 14.646C102.46 14.7073 102.828 14.8607 103.134 15.106C103.502 15.5047 103.702 15.98 103.732 16.532C103.794 17.0533 103.579 17.7893 103.088 18.74C102.72 19.6907 102.368 20.442 102.03 20.994C101.724 21.5153 101.417 22.1287 101.11 22.834C101.448 22.3433 101.862 21.8373 102.352 21.316C102.843 20.7947 103.226 20.3807 103.502 20.074C103.901 19.6447 104.269 19.3073 104.606 19.062C104.974 18.786 105.465 18.4487 106.078 18.05C106.6 17.682 107.121 17.3447 107.642 17.038C108.194 16.7313 108.854 16.6393 109.62 16.762C109.927 16.7313 110.249 16.8847 110.586 17.222C110.954 17.5593 111.23 18.004 111.414 18.556C111.629 19.0773 111.629 19.6447 111.414 20.258C110.709 20.1047 110.08 20.1353 109.528 20.35C108.976 20.534 108.501 20.764 108.102 21.04C107.734 21.316 107.443 21.5307 107.228 21.684C106.922 21.868 106.569 22.1133 106.17 22.42C105.772 22.696 105.342 23.018 104.882 23.386C104.422 23.7233 103.932 24.1067 103.41 24.536C102.674 25.1493 102.122 25.686 101.754 26.146C101.386 26.606 101.095 27.0967 100.88 27.618C100.696 28.078 100.466 28.63 100.19 29.274C99.9144 29.918 99.6538 30.5007 99.4084 31.022C99.1631 31.5127 98.9638 31.8193 98.8104 31.942C98.6571 32.2487 98.3351 32.4173 97.8444 32.448C97.3844 32.4787 97.0624 32.4327 96.8784 32.31Z"/><path fill="#000" d="M115.157 32.586C113.961 32.0953 113.133 31.298 112.673 30.194C112.213 29.09 112.09 27.618 112.305 25.778C112.366 24.8273 112.335 24.1987 112.213 23.892C112.09 23.5547 111.86 23.2327 111.523 22.926C111.431 22.8033 111.216 22.604 110.879 22.328C110.541 22.0213 110.388 21.7913 110.419 21.638C110.388 21.4233 110.434 21.1627 110.557 20.856C110.679 20.5187 110.787 20.3347 110.879 20.304C111.093 20.212 111.308 20.1047 111.523 19.982C111.768 19.8593 111.952 19.8287 112.075 19.89C112.197 19.89 112.381 19.9667 112.627 20.12C112.903 20.2733 113.041 20.4113 113.041 20.534C113.163 20.7487 113.347 20.6567 113.593 20.258C113.869 19.8593 114.16 19.3533 114.467 18.74C114.773 18.2493 115.157 17.7893 115.617 17.36C116.077 16.9307 116.537 16.5473 116.997 16.21C117.487 15.842 117.901 15.566 118.239 15.382C118.392 15.3207 118.683 15.2287 119.113 15.106C119.573 14.9833 120.048 14.8913 120.539 14.83C121.029 14.738 121.397 14.7073 121.643 14.738C122.195 14.7687 122.777 14.9987 123.391 15.428C124.004 15.8573 124.479 16.256 124.817 16.624C125.215 16.9 125.476 17.3293 125.599 17.912C125.752 18.464 125.813 19.0467 125.783 19.66C125.752 20.2733 125.629 20.7947 125.415 21.224C125.323 21.5307 125.001 21.96 124.449 22.512C123.897 23.064 123.283 23.6007 122.609 24.122C121.965 24.6127 121.413 24.95 120.953 25.134C120.554 25.226 120.079 25.3027 119.527 25.364C118.975 25.3947 118.453 25.3947 117.963 25.364C117.503 25.3027 117.181 25.226 116.997 25.134C116.782 25.0113 116.598 25.0573 116.445 25.272C116.322 25.456 116.215 25.9773 116.123 26.836C116.092 27.1733 116.092 27.4647 116.123 27.71C116.184 27.9553 116.245 28.1393 116.307 28.262C116.521 28.63 116.736 28.906 116.951 29.09C117.165 29.2433 117.564 29.2893 118.147 29.228C118.729 29.1667 119.312 28.814 119.895 28.17C120.508 27.4953 121.06 26.9587 121.551 26.56C121.673 26.3453 121.934 26.2073 122.333 26.146C122.762 26.054 123.268 26.0847 123.851 26.238C124.188 26.4527 124.341 26.79 124.311 27.25C124.311 27.71 124.065 28.3847 123.575 29.274C123.483 29.4887 123.222 29.8107 122.793 30.24C122.394 30.6387 121.949 31.0527 121.459 31.482C120.999 31.8807 120.615 32.172 120.309 32.356C119.389 32.8467 118.484 33.0767 117.595 33.046C116.705 33.0153 115.893 32.862 115.157 32.586ZM118.561 22.236C119.021 22.1133 119.404 21.9907 119.711 21.868C120.048 21.7453 120.37 21.546 120.677 21.27C120.983 20.994 121.336 20.58 121.735 20.028C121.857 19.6907 121.919 19.3993 121.919 19.154C121.949 18.9087 121.934 18.7553 121.873 18.694C121.627 18.4487 121.351 18.372 121.045 18.464C120.769 18.5253 120.462 18.6787 120.125 18.924C119.91 19.016 119.603 19.2153 119.205 19.522C118.837 19.798 118.469 20.12 118.101 20.488C117.763 20.8253 117.487 21.1473 117.273 21.454C117.089 21.73 117.058 21.8987 117.181 21.96C117.119 22.0827 117.288 22.1593 117.687 22.19C118.116 22.2207 118.407 22.236 118.561 22.236Z"/><path fill="#000" d="M136.316 32.08C135.396 32.6013 134.415 32.908 133.372 33C132.36 33.0613 131.409 32.9233 130.52 32.586C129.631 32.218 128.91 31.6813 128.358 30.976C128.051 30.5773 127.76 29.9487 127.484 29.09C127.208 28.2007 127.162 27.0047 127.346 25.502C127.53 24.0913 127.959 22.6653 128.634 21.224C129.339 19.7827 130.198 18.51 131.21 17.406C132.222 16.302 133.326 15.5507 134.522 15.152C134.951 14.9987 135.381 14.8913 135.81 14.83C136.27 14.738 136.868 14.7227 137.604 14.784C138.309 14.876 138.938 15.06 139.49 15.336C140.042 15.5813 140.441 15.8573 140.686 16.164C141.177 16.6547 141.499 17.13 141.652 17.59C141.805 18.05 141.867 18.4947 141.836 18.924C141.683 19.9053 141.238 20.9633 140.502 22.098C139.797 23.2327 138.8 24.076 137.512 24.628C136.991 24.8427 136.377 24.9807 135.672 25.042C134.967 25.1033 134.001 25.0113 132.774 24.766C132.038 24.6127 131.547 24.6893 131.302 24.996C131.087 25.3027 130.995 25.9007 131.026 26.79C131.087 27.342 131.21 27.8327 131.394 28.262C131.609 28.6607 131.992 28.9367 132.544 29.09C133.249 29.2127 133.755 29.228 134.062 29.136C134.369 29.0133 134.752 28.8447 135.212 28.63C135.457 28.4767 135.687 28.308 135.902 28.124C136.147 27.94 136.377 27.756 136.592 27.572C136.837 27.388 137.037 27.25 137.19 27.158C137.343 27.0353 137.497 26.9587 137.65 26.928C137.803 26.8973 137.957 26.882 138.11 26.882C138.447 26.9127 138.769 27.0967 139.076 27.434C139.383 27.7713 139.582 28.0933 139.674 28.4C139.674 28.6453 139.521 28.998 139.214 29.458C138.907 29.8873 138.493 30.3473 137.972 30.838C137.481 31.298 136.929 31.712 136.316 32.08ZM135.718 21.822C135.933 21.73 136.239 21.5153 136.638 21.178C137.067 20.8407 137.451 20.488 137.788 20.12C138.125 19.7213 138.294 19.4147 138.294 19.2C138.294 18.8627 138.064 18.5713 137.604 18.326C137.175 18.0807 136.607 18.0347 135.902 18.188C135.657 18.2493 135.365 18.418 135.028 18.694C134.691 18.97 134.353 19.292 134.016 19.66C133.679 19.9973 133.387 20.3347 133.142 20.672C132.897 20.9787 132.728 21.224 132.636 21.408C132.759 21.5613 133.004 21.684 133.372 21.776C133.74 21.868 134.139 21.914 134.568 21.914C135.028 21.914 135.411 21.8833 135.718 21.822Z"/></svg>