<svg xmlns="http://www.w3.org/2000/svg" width="30" height="38" fill="none" viewBox="0 0 30 38"><path fill="#44F781" d="M7.42645 37.6188C6.84378 37.7108 6.13844 37.6955 5.31044 37.5728C4.48245 37.4808 3.59311 37.3121 2.64244 37.0668C2.15178 36.9135 1.79911 36.7295 1.58444 36.5148C1.40044 36.3001 1.07844 35.9015 0.618444 35.3188C0.311778 34.8588 0.112444 34.3375 0.0204445 33.7548C-0.0408889 33.1721 0.0357778 32.6508 0.250444 32.1908C0.495778 31.7308 0.894444 31.4548 1.44644 31.3628C1.69178 31.3015 1.98311 31.3628 2.32044 31.5468C2.68844 31.7001 3.07178 31.8995 3.47044 32.1448C4.11444 32.5128 4.80444 32.8808 5.54044 33.2488C6.27644 33.6475 6.95111 33.8008 7.56444 33.7088C7.99378 33.6168 8.49978 33.5555 9.08245 33.5248C9.69578 33.5248 10.2784 33.4788 10.8304 33.3868C11.4131 33.2948 11.8731 33.1261 12.2104 32.8808C13.8358 31.7768 15.0471 30.9028 15.8444 30.2588C16.6418 29.5841 17.0404 29.2468 17.0404 29.2468C17.1018 29.1241 17.2091 29.0321 17.3624 28.9708C17.5464 28.8788 17.7611 28.7868 18.0064 28.6948C18.1904 28.5108 18.4818 28.2195 18.8804 27.8208C19.2791 27.3915 19.6624 26.9775 20.0304 26.5788C20.4291 26.1801 20.6744 25.9501 20.7664 25.8888C20.8278 25.6128 20.8891 25.3981 20.9504 25.2448C21.0118 25.0608 21.0424 24.8768 21.0424 24.6928C21.2878 24.4475 21.6098 23.9415 22.0084 23.1748C22.4378 22.3775 22.8671 21.5035 23.2964 20.5528C23.7258 19.5715 24.0324 18.6821 24.2164 17.8848C24.6151 16.1981 24.7531 14.6648 24.6304 13.2848C24.5078 11.9048 24.1551 10.6628 23.5724 9.5588C22.9898 8.4548 22.2078 7.4888 21.2264 6.6608C20.8891 6.3848 20.4291 6.09347 19.8464 5.7868C19.2638 5.44947 18.6658 5.1428 18.0524 4.8668C17.4391 4.56013 16.8871 4.33013 16.3964 4.1768C15.9364 4.02347 15.6604 3.96213 15.5684 3.9928C15.4458 4.02347 15.2004 4.4988 14.8324 5.4188C14.4951 6.30813 14.0658 7.45813 13.5444 8.8688C13.0538 10.2795 12.5171 11.7975 11.9344 13.4228C11.3824 15.0175 10.8458 16.5355 10.3244 17.9768C10.1711 18.5595 9.97178 19.1728 9.72645 19.8168C9.51178 20.4608 9.32778 21.0281 9.17444 21.5188C9.02111 21.9788 8.94444 22.2855 8.94444 22.4388C8.60711 22.9601 8.25444 23.7575 7.88645 24.8308C7.51844 25.9041 7.21178 27.4375 6.96644 29.4308C6.69044 30.4735 6.49111 31.3475 6.36844 32.0528C6.24578 32.7275 6.12311 33.0495 6.00044 33.0188C6.00044 33.0188 5.98511 33.1568 5.95444 33.4328C5.92378 33.7395 5.86244 33.9388 5.77044 34.0308C5.77044 34.2148 5.58644 34.3375 5.21844 34.3988C4.85044 34.4601 4.42111 34.3835 3.93044 34.1688C3.43978 33.9541 2.97978 33.5401 2.55044 32.9268C2.45844 32.5895 2.38178 32.0988 2.32044 31.4548C2.28978 30.7801 2.39711 29.9981 2.64244 29.1088C2.79578 28.5261 3.01044 27.7748 3.28644 26.8548C3.56244 25.9348 3.86911 24.9841 4.20644 24.0028C4.54378 23.0215 4.85044 22.1168 5.12644 21.2888C5.43311 20.4608 5.64778 19.8475 5.77044 19.4488C5.98511 18.9275 6.29178 17.9461 6.69044 16.5048C6.93578 15.7075 7.18111 14.9101 7.42645 14.1128C7.70245 13.3155 7.96311 12.6101 8.20845 11.9968C8.45378 11.3528 8.62245 10.9388 8.71445 10.7548C8.86778 10.3561 9.05178 9.71213 9.26644 8.8228C9.51178 7.9028 9.87978 6.86013 10.3704 5.6948L10.6924 4.1768L10.1864 3.9468C9.81845 4.06947 9.52711 4.11547 9.31245 4.0848C9.12845 4.02347 9.00578 3.97747 8.94444 3.9468C8.76044 4.00813 8.51511 3.96213 8.20845 3.8088C7.93245 3.6248 7.67178 3.3948 7.42645 3.1188C7.21178 2.8428 7.07378 2.6128 7.01244 2.4288C6.95111 2.30613 6.90511 2.1528 6.87444 1.9688C6.87444 1.75413 6.87444 1.6468 6.87444 1.6468C6.90511 1.4628 7.16578 1.2788 7.65644 1.0948C8.14711 0.880133 8.77578 0.6808 9.54245 0.4968C10.3398 0.312801 11.1831 0.174801 12.0724 0.0828002C12.9618 -0.00920039 13.7898 -0.0245335 14.5564 0.0368008C15.3538 0.0981334 16.3351 0.282133 17.5004 0.588799C18.6658 0.895467 19.6624 1.20213 20.4904 1.5088C21.4718 1.8768 22.5298 2.50547 23.6644 3.3948C24.7991 4.28413 25.8264 5.34213 26.7464 6.5688C27.6971 7.79547 28.3258 9.08347 28.6324 10.4328C28.7244 10.8008 28.8164 11.3221 28.9084 11.9968C29.0004 12.6715 29.0464 13.3308 29.0464 13.9748C29.0771 14.5881 29.0158 14.9868 28.8624 15.1708C28.8011 15.2935 28.7551 15.4468 28.7244 15.6308C28.7244 15.7841 28.7858 15.8915 28.9084 15.9528C28.8778 16.0448 28.7704 16.3975 28.5864 17.0108C28.4024 17.5935 28.2338 18.0995 28.0804 18.5288C28.0191 19.3261 27.8044 20.2461 27.4364 21.2888C27.0991 22.3315 26.7158 23.3281 26.2864 24.2788C25.8878 25.1988 25.5351 25.9195 25.2284 26.4408C25.1058 26.4408 24.9831 26.4715 24.8604 26.5328C24.7684 26.5635 24.7838 26.5941 24.9064 26.6248C24.9064 26.7781 24.7378 27.0695 24.4004 27.4988C24.2778 27.5908 24.0784 27.8208 23.8024 28.1888C23.5571 28.5261 23.3578 28.7561 23.2044 28.8788C23.1738 29.0935 23.0818 29.2775 22.9284 29.4308C22.7751 29.5535 22.6371 29.6148 22.5144 29.6148C22.5144 29.6148 22.4838 29.6148 22.4224 29.6148C22.3918 29.6148 22.3764 29.6761 22.3764 29.7988C22.1311 30.1668 21.7171 30.6421 21.1344 31.2248C20.5518 31.8075 19.8924 32.4055 19.1564 33.0188C18.4204 33.6321 17.6844 34.1995 16.9484 34.7208C16.2124 35.2421 15.5378 35.6255 14.9244 35.8708C14.6178 36.0855 14.2958 36.2541 13.9584 36.3768C13.6211 36.5301 13.2991 36.6835 12.9924 36.8368C12.8391 36.9595 12.3944 37.0668 11.6584 37.1588C10.9224 37.2508 10.1404 37.3275 9.31245 37.3888C8.51511 37.4501 7.88645 37.5268 7.42645 37.6188Z"/></svg>