<svg width="142" height="38" viewBox="0 0 142 38" fill="none" xmlns="http://www.w3.org/2000/svg">
<path d="M7.42645 37.6188C6.84378 37.7108 6.13844 37.6955 5.31044 37.5728C4.48245 37.4808 3.59311 37.3121 2.64244 37.0668C2.15178 36.9135 1.79911 36.7295 1.58444 36.5148C1.40044 36.3001 1.07844 35.9015 0.618444 35.3188C0.311778 34.8588 0.112444 34.3375 0.0204445 33.7548C-0.0408889 33.1721 0.0357778 32.6508 0.250444 32.1908C0.495778 31.7308 0.894444 31.4548 1.44644 31.3628C1.69178 31.3015 1.98311 31.3628 2.32044 31.5468C2.68844 31.7001 3.07178 31.8995 3.47044 32.1448C4.11444 32.5128 4.80444 32.8808 5.54044 33.2488C6.27644 33.6475 6.95111 33.8008 7.56444 33.7088C7.99378 33.6168 8.49978 33.5555 9.08245 33.5248C9.69578 33.5248 10.2784 33.4788 10.8304 33.3868C11.4131 33.2948 11.8731 33.1261 12.2104 32.8808C13.8358 31.7768 15.0471 30.9028 15.8444 30.2588C16.6418 29.5841 17.0404 29.2468 17.0404 29.2468C17.1018 29.1241 17.2091 29.0321 17.3624 28.9708C17.5464 28.8788 17.7611 28.7868 18.0064 28.6948C18.1904 28.5108 18.4818 28.2195 18.8804 27.8208C19.2791 27.3915 19.6624 26.9775 20.0304 26.5788C20.4291 26.1801 20.6744 25.9501 20.7664 25.8888C20.8278 25.6128 20.8891 25.3981 20.9504 25.2448C21.0118 25.0608 21.0424 24.8768 21.0424 24.6928C21.2878 24.4475 21.6098 23.9415 22.0084 23.1748C22.4378 22.3775 22.8671 21.5035 23.2964 20.5528C23.7258 19.5715 24.0324 18.6821 24.2164 17.8848C24.6151 16.1981 24.7531 14.6648 24.6304 13.2848C24.5078 11.9048 24.1551 10.6628 23.5724 9.5588C22.9898 8.4548 22.2078 7.4888 21.2264 6.6608C20.8891 6.3848 20.4291 6.09347 19.8464 5.7868C19.2638 5.44947 18.6658 5.1428 18.0524 4.8668C17.4391 4.56013 16.8871 4.33013 16.3964 4.1768C15.9364 4.02347 15.6604 3.96213 15.5684 3.9928C15.4458 4.02347 15.2004 4.4988 14.8324 5.4188C14.4951 6.30813 14.0658 7.45813 13.5444 8.8688C13.0538 10.2795 12.5171 11.7975 11.9344 13.4228C11.3824 15.0175 10.8458 16.5355 10.3244 17.9768C10.1711 18.5595 9.97178 19.1728 9.72645 19.8168C9.51178 20.4608 9.32778 21.0281 9.17444 21.5188C9.02111 21.9788 8.94444 22.2855 8.94444 22.4388C8.60711 22.9601 8.25444 23.7575 7.88645 24.8308C7.51844 25.9041 7.21178 27.4375 6.96644 29.4308C6.69044 30.4735 6.49111 31.3475 6.36844 32.0528C6.24578 32.7275 6.12311 33.0495 6.00044 33.0188C6.00044 33.0188 5.98511 33.1568 5.95444 33.4328C5.92378 33.7395 5.86244 33.9388 5.77044 34.0308C5.77044 34.2148 5.58644 34.3375 5.21844 34.3988C4.85044 34.4601 4.42111 34.3835 3.93044 34.1688C3.43978 33.9541 2.97978 33.5401 2.55044 32.9268C2.45844 32.5895 2.38178 32.0988 2.32044 31.4548C2.28978 30.7801 2.39711 29.9981 2.64244 29.1088C2.79578 28.5261 3.01044 27.7748 3.28644 26.8548C3.56244 25.9348 3.86911 24.9841 4.20644 24.0028C4.54378 23.0215 4.85044 22.1168 5.12644 21.2888C5.43311 20.4608 5.64778 19.8475 5.77044 19.4488C5.98511 18.9275 6.29178 17.9461 6.69044 16.5048C6.93578 15.7075 7.18111 14.9101 7.42645 14.1128C7.70245 13.3155 7.96311 12.6101 8.20845 11.9968C8.45378 11.3528 8.62245 10.9388 8.71445 10.7548C8.86778 10.3561 9.05178 9.71213 9.26644 8.8228C9.51178 7.9028 9.87978 6.86013 10.3704 5.6948L10.6924 4.1768L10.1864 3.9468C9.81845 4.06947 9.52711 4.11547 9.31245 4.0848C9.12845 4.02347 9.00578 3.97747 8.94444 3.9468C8.76044 4.00813 8.51511 3.96213 8.20845 3.8088C7.93245 3.6248 7.67178 3.3948 7.42645 3.1188C7.21178 2.8428 7.07378 2.6128 7.01244 2.4288C6.95111 2.30613 6.90511 2.1528 6.87444 1.9688C6.87444 1.75413 6.87444 1.6468 6.87444 1.6468C6.90511 1.4628 7.16578 1.2788 7.65644 1.0948C8.14711 0.880133 8.77578 0.6808 9.54245 0.4968C10.3398 0.312801 11.1831 0.174801 12.0724 0.0828002C12.9618 -0.00920039 13.7898 -0.0245335 14.5564 0.0368008C15.3538 0.0981334 16.3351 0.282133 17.5004 0.588799C18.6658 0.895467 19.6624 1.20213 20.4904 1.5088C21.4718 1.8768 22.5298 2.50547 23.6644 3.3948C24.7991 4.28413 25.8264 5.34213 26.7464 6.5688C27.6971 7.79547 28.3258 9.08347 28.6324 10.4328C28.7244 10.8008 28.8164 11.3221 28.9084 11.9968C29.0004 12.6715 29.0464 13.3308 29.0464 13.9748C29.0771 14.5881 29.0158 14.9868 28.8624 15.1708C28.8011 15.2935 28.7551 15.4468 28.7244 15.6308C28.7244 15.7841 28.7858 15.8915 28.9084 15.9528C28.8778 16.0448 28.7704 16.3975 28.5864 17.0108C28.4024 17.5935 28.2338 18.0995 28.0804 18.5288C28.0191 19.3261 27.8044 20.2461 27.4364 21.2888C27.0991 22.3315 26.7158 23.3281 26.2864 24.2788C25.8878 25.1988 25.5351 25.9195 25.2284 26.4408C25.1058 26.4408 24.9831 26.4715 24.8604 26.5328C24.7684 26.5635 24.7838 26.5941 24.9064 26.6248C24.9064 26.7781 24.7378 27.0695 24.4004 27.4988C24.2778 27.5908 24.0784 27.8208 23.8024 28.1888C23.5571 28.5261 23.3578 28.7561 23.2044 28.8788C23.1738 29.0935 23.0818 29.2775 22.9284 29.4308C22.7751 29.5535 22.6371 29.6148 22.5144 29.6148C22.5144 29.6148 22.4838 29.6148 22.4224 29.6148C22.3918 29.6148 22.3764 29.6761 22.3764 29.7988C22.1311 30.1668 21.7171 30.6421 21.1344 31.2248C20.5518 31.8075 19.8924 32.4055 19.1564 33.0188C18.4204 33.6321 17.6844 34.1995 16.9484 34.7208C16.2124 35.2421 15.5378 35.6255 14.9244 35.8708C14.6178 36.0855 14.2958 36.2541 13.9584 36.3768C13.6211 36.5301 13.2991 36.6835 12.9924 36.8368C12.8391 36.9595 12.3944 37.0668 11.6584 37.1588C10.9224 37.2508 10.1404 37.3275 9.31245 37.3888C8.51511 37.4501 7.88645 37.5268 7.42645 37.6188Z" fill="white"/>
<path d="M30.3765 31.7768C30.2538 31.5315 29.9778 31.2861 29.5485 31.0408C29.1498 30.7955 28.9505 30.6115 28.9505 30.4888C28.9505 30.3661 28.8738 30.1821 28.7205 29.9368C28.5978 29.6608 28.4752 29.4615 28.3525 29.3388C28.1992 29.1548 28.2452 28.7101 28.4905 28.0048C28.7358 27.2688 29.1038 26.3795 29.5945 25.3368C30.0852 24.2941 30.6218 23.2361 31.2045 22.1628C31.4498 21.9175 31.6952 21.5955 31.9405 21.1968C32.1858 20.7981 32.3698 20.5375 32.4925 20.4148C32.4925 20.2921 32.5385 20.1848 32.6305 20.0928C32.7225 19.9701 32.8298 19.9088 32.9525 19.9088L33.3205 19.1728C33.3818 19.0501 33.5658 18.8048 33.8725 18.4368C34.2098 18.0688 34.6085 17.6701 35.0685 17.2408C35.5285 16.7808 35.9885 16.3515 36.4485 15.9528C36.9392 15.5541 37.3378 15.2628 37.6445 15.0788C38.2885 14.6495 38.9478 14.4501 39.6225 14.4808C40.3278 14.5115 40.9258 14.7261 41.4165 15.1248C41.5085 15.2168 41.7078 15.4008 42.0145 15.6768C42.3518 15.9528 42.7198 16.2595 43.1185 16.5968C43.5478 16.9341 43.9158 17.2408 44.2225 17.5168L45.9245 19.0348L45.1425 21.3348C44.7438 22.5615 44.6365 23.6348 44.8205 24.5548C45.0045 25.4748 45.2958 26.2721 45.6945 26.9468C45.8478 27.2841 46.0472 27.5448 46.2925 27.7288C46.5685 27.9128 46.9212 28.0355 47.3505 28.0968C47.5958 28.1275 47.8258 28.2195 48.0405 28.3728C48.2552 28.5261 48.3625 28.7715 48.3625 29.1088C48.3625 29.8448 48.2245 30.3815 47.9485 30.7188C47.7032 31.0255 47.4272 31.2095 47.1205 31.2708C46.1085 31.3935 45.1425 31.2861 44.2225 30.9488C43.3025 30.6115 42.4745 29.7375 41.7385 28.3268C41.6158 28.1428 41.4472 27.8055 41.2325 27.3148C41.0485 26.7935 40.9412 26.4561 40.9105 26.3028C40.7878 26.4561 40.6192 26.6555 40.4045 26.9008C40.2205 27.1155 40.0365 27.3148 39.8525 27.4988C37.6752 29.7068 35.8045 31.1481 34.2405 31.8228C32.7072 32.4668 31.4192 32.4515 30.3765 31.7768ZM32.9065 27.9588C33.1212 27.9895 33.4585 27.8821 33.9185 27.6368C34.3785 27.3608 34.9918 26.9161 35.7585 26.3028C36.8012 25.4135 37.6598 24.6775 38.3345 24.0948C39.0092 23.5121 39.6685 22.7608 40.3125 21.8408L41.3245 20.1848C41.0178 19.4795 40.7418 19.0195 40.4965 18.8048C40.2512 18.5901 40.0058 18.4828 39.7605 18.4828C39.3618 18.4828 38.8865 18.7435 38.3345 19.2648C37.7825 19.7555 37.1538 20.4915 36.4485 21.4728C35.7738 22.4235 35.0072 23.6195 34.1485 25.0608C33.7498 25.7355 33.4432 26.3948 33.2285 27.0388C33.0138 27.6521 32.9065 27.9588 32.9065 27.9588Z" fill="white"/>
<path d="M53.0678 32.6968C52.3318 32.6968 51.6878 32.3135 51.1358 31.5468C50.6145 30.7495 50.2925 29.7988 50.1698 28.6948C50.2005 28.4495 50.2311 28.0968 50.2618 27.6368C50.3231 27.1768 50.3845 26.7015 50.4458 26.2108C50.5685 25.6281 50.7371 24.8768 50.9518 23.9568C51.1665 23.0368 51.3965 22.1168 51.6418 21.1968C51.8871 20.2461 52.1018 19.4335 52.2858 18.7588C52.4698 18.0535 52.5771 17.6395 52.6078 17.5168C52.7918 17.0875 53.2058 16.9801 53.8498 17.1948C54.4938 17.4095 55.0458 17.8695 55.5058 18.5748C55.6898 18.8201 55.7971 19.1115 55.8278 19.4488C55.8891 19.7861 55.8431 20.2768 55.6898 20.9208C55.5671 21.5648 55.3218 22.5155 54.9538 23.7728C54.6165 24.9995 54.3558 25.9961 54.1718 26.7628C54.0185 27.4988 53.9571 28.2808 53.9878 29.1088C53.8651 30.5195 53.7425 31.4855 53.6198 32.0068C53.4971 32.4975 53.3131 32.7275 53.0678 32.6968ZM57.2998 13.6068C57.1771 13.6988 57.0545 13.7448 56.9318 13.7448C56.8398 13.7141 56.6711 13.6221 56.4258 13.4688C56.2111 13.4381 55.9351 13.3001 55.5978 13.0548C55.2911 12.7788 55.0151 12.5028 54.7698 12.2268C54.5551 11.9508 54.4478 11.7821 54.4478 11.7208C54.4171 11.4141 54.4325 10.9235 54.4938 10.2488C54.5858 9.57413 54.7545 8.94547 54.9998 8.3628C55.2758 7.74947 55.6438 7.42747 56.1038 7.3968C56.2265 7.3968 56.4871 7.45813 56.8858 7.5808C57.3151 7.70347 57.7598 7.8568 58.2198 8.0408C58.4651 8.5008 58.6951 9.0988 58.9098 9.8348C59.1245 10.5708 59.1398 11.2915 58.9558 11.9968C58.8025 12.6715 58.2505 13.2081 57.2998 13.6068Z" fill="white"/>
<path d="M74.6091 31.6388C73.9344 31.5775 73.3671 31.4395 72.9071 31.2248C72.4778 30.9795 72.1251 30.5041 71.8491 29.7988C71.7264 29.3081 71.6651 28.8021 71.6651 28.2808C71.6958 27.7288 71.7418 27.2075 71.8031 26.7168C71.8644 26.1955 71.8951 25.7508 71.8951 25.3828C71.8951 25.3215 71.8951 25.1988 71.8951 25.0148C71.8951 24.8308 71.8951 24.6621 71.8951 24.5088C71.8338 24.0488 71.7111 23.7728 71.5271 23.6808C71.3738 23.5581 71.0978 23.5735 70.6991 23.7268C70.0551 24.0335 69.3498 24.4475 68.5831 24.9688C67.8471 25.4595 67.0651 26.0421 66.2371 26.7168C65.4398 27.3608 64.6118 28.0508 63.7531 28.7868C63.0784 29.5228 62.5724 30.1208 62.2351 30.5808C61.9284 31.0408 61.6064 31.2708 61.2691 31.2708C61.0238 31.3935 60.7631 31.3628 60.4871 31.1788C60.2111 30.9948 59.9198 30.7801 59.6131 30.5348C59.3984 30.2895 59.1378 29.9828 58.8311 29.6148C58.5551 29.2161 58.3864 28.9555 58.3251 28.8328C58.3251 28.3421 58.3558 27.8975 58.4171 27.4988C58.5091 27.1001 58.6318 26.6861 58.7851 26.2568C58.9691 25.8275 59.1838 25.3368 59.4291 24.7848C59.5518 24.5701 59.6591 24.3555 59.7511 24.1408C59.8738 23.8955 60.0118 23.6348 60.1651 23.3588C60.2878 22.9295 60.4564 22.4388 60.6711 21.8868C60.9164 21.3348 61.1464 20.8135 61.3611 20.3228C61.6984 19.5255 61.9591 18.8355 62.1431 18.2528C62.3271 17.6701 62.4804 17.0415 62.6031 16.3668C62.5724 16.3055 62.5878 16.2135 62.6491 16.0908C62.7104 15.9681 62.8024 15.8915 62.9251 15.8608H63.0171C63.2318 15.7075 63.6304 15.6921 64.2131 15.8148C64.8264 15.9068 65.2864 16.0755 65.5931 16.3208C66.2371 16.8728 66.5438 17.5935 66.5131 18.4828C66.4824 19.3721 66.0224 20.5375 65.1331 21.9788C64.9184 22.4695 64.6884 22.9295 64.4431 23.3588C64.2284 23.7575 64.1211 24.0335 64.1211 24.1868C64.1211 24.1868 64.2437 24.0948 64.4891 23.9108C64.7344 23.7268 65.0257 23.5121 65.3631 23.2668C65.7004 22.9908 65.9918 22.7761 66.2371 22.6228C66.3904 22.4695 66.7278 22.1935 67.2491 21.7948C67.7704 21.3655 68.3378 20.9208 68.9511 20.4608C69.5644 20.0008 70.0551 19.6481 70.4231 19.4028C70.7604 19.1575 71.1897 18.9121 71.7111 18.6668C72.2324 18.3908 72.5544 18.2528 72.6771 18.2528C72.9838 18.2528 73.3517 18.3601 73.7811 18.5748C74.2411 18.7895 74.6551 19.0501 75.0231 19.3568C75.4218 19.6328 75.6518 19.8935 75.7131 20.1388C75.7131 20.2615 75.6978 20.4301 75.6671 20.6448C75.6364 20.8288 75.6211 20.9975 75.6211 21.1508C75.5904 21.6415 75.5751 22.2395 75.5751 22.9448C75.6058 23.6195 75.6211 24.3095 75.6211 25.0148C75.6211 25.6895 75.5598 26.3028 75.4371 26.8548C75.4371 26.8548 75.4524 26.8855 75.4831 26.9468C75.5138 26.9775 75.5444 27.0388 75.5751 27.1308C75.5444 27.1615 75.5291 27.2228 75.5291 27.3148C75.5597 27.3761 75.5751 27.4068 75.5751 27.4068C75.6364 27.6215 75.6978 27.8361 75.7591 28.0508C75.8511 28.2655 75.9584 28.5108 76.0811 28.7868C76.2038 29.0321 76.3418 29.3541 76.4951 29.7528C76.4644 30.1515 76.2344 30.5501 75.8051 30.9488C75.4064 31.3168 75.0078 31.5468 74.6091 31.6388Z" fill="white"/>
<path d="M85.9244 33.0188C85.495 32.8961 85.0657 32.6815 84.6364 32.3748C84.207 32.0681 83.7624 31.7155 83.3024 31.3168C82.9344 30.8261 82.6737 30.3815 82.5204 29.9828C82.367 29.5535 82.275 29.0628 82.2444 28.5108C82.2444 27.9281 82.2444 27.1921 82.2444 26.3028C82.2444 25.9348 82.3057 25.4135 82.4284 24.7388C82.5817 24.0641 82.735 23.3588 82.8884 22.6228C83.0724 21.8868 83.241 21.2428 83.3944 20.6908C83.5477 20.1081 83.6397 19.7248 83.6704 19.5408C83.7624 19.1421 83.609 18.9121 83.2104 18.8508C82.8117 18.7895 82.367 18.7741 81.8764 18.8048C81.4164 18.8048 81.1097 18.7588 80.9564 18.6668C80.8337 18.6361 80.7724 18.4828 80.7724 18.2068C80.7724 17.9001 80.7724 17.7468 80.7724 17.7468C80.7724 17.6241 80.711 17.5475 80.5884 17.5168C80.4657 17.4555 80.3584 17.3481 80.2664 17.1948C80.205 17.0721 80.2817 16.8421 80.4964 16.5048C80.711 16.1675 80.987 15.9681 81.3244 15.9068C81.6004 15.8455 82.0144 15.7995 82.5664 15.7688C83.1184 15.7075 83.6704 15.6001 84.2224 15.4468C84.805 15.2628 85.2497 14.9868 85.5564 14.6188C85.8324 13.9441 86.139 13.2235 86.4764 12.4568C86.8137 11.6595 87.1357 10.9695 87.4424 10.3868C87.749 9.77347 87.9637 9.39013 88.0864 9.2368C88.6077 8.9608 89.1444 8.85347 89.6964 8.9148C90.2484 8.94547 90.6777 9.20613 90.9844 9.6968C91.1377 9.91147 91.2604 10.0648 91.3524 10.1568C91.475 10.2488 91.521 10.3868 91.4904 10.5708C91.4904 10.7548 91.3677 11.0921 91.1224 11.5828C90.9077 12.0428 90.5397 12.7635 90.0184 13.7448C89.865 14.0515 89.727 14.3275 89.6044 14.5728C89.4817 14.7875 89.4204 14.8948 89.4204 14.8948C89.543 14.9255 89.727 14.9408 89.9724 14.9408C90.2177 14.9408 90.5244 14.9255 90.8924 14.8948C91.2297 14.8335 91.5977 14.7875 91.9964 14.7568C92.395 14.6955 92.7477 14.6955 93.0544 14.7568C93.7597 14.7568 94.281 14.9561 94.6184 15.3548C94.9557 15.7535 95.1397 16.2595 95.1704 16.8728C95.2317 17.2101 95.109 17.5015 94.8024 17.7468C94.4957 17.9921 93.9284 18.1148 93.1004 18.1148C92.8244 18.1148 92.4257 18.1301 91.9044 18.1608C91.383 18.1915 90.8464 18.2221 90.2944 18.2528C89.7424 18.2835 89.267 18.3295 88.8684 18.3908C88.5004 18.4215 88.3164 18.4675 88.3164 18.5288C88.2244 18.5901 88.071 18.8355 87.8564 19.2648C87.6724 19.6635 87.473 20.1541 87.2584 20.7368C87.0744 21.3195 86.9057 21.8715 86.7524 22.3928C86.5377 23.4355 86.3844 24.4475 86.2924 25.4288C86.2004 26.4101 86.185 27.2688 86.2464 28.0048C86.3384 28.7101 86.5224 29.2161 86.7984 29.5228C87.0744 29.7988 87.4884 29.7988 88.0404 29.5228C88.623 29.2161 89.1597 28.8635 89.6504 28.4648C90.2024 28.0048 90.6777 27.8668 91.0764 28.0508C91.475 28.2041 91.7204 28.5415 91.8124 29.0628C91.935 29.5535 91.797 30.0901 91.3984 30.6728C91.0304 31.2555 90.509 31.7461 89.8344 32.1448C89.1597 32.5435 88.4697 32.8195 87.7644 32.9728C87.059 33.1568 86.4457 33.1721 85.9244 33.0188Z" fill="white"/>
<path d="M96.5529 32.0528C96.3382 32.0528 96.0469 31.8995 95.6789 31.5928C95.3415 31.2861 95.1422 31.0101 95.0809 30.7648C94.9889 30.5195 94.9889 30.1668 95.0809 29.7068C95.2035 29.2161 95.3722 28.6488 95.5869 28.0048C95.8322 26.9928 96.0009 26.2568 96.0929 25.7968C96.1849 25.3368 96.2769 24.9381 96.3689 24.6008C96.4609 24.2635 96.5836 23.7728 96.7369 23.1288C96.9209 22.7301 97.0589 22.3468 97.1509 21.9788C97.2735 21.5801 97.3962 21.1815 97.5189 20.7828C97.6722 20.3841 97.8409 19.9855 98.0249 19.5868C98.2395 18.7895 98.5002 18.0381 98.8069 17.3328C99.1442 16.5968 99.4662 15.9835 99.7729 15.4928C99.8342 15.4008 99.9722 15.2321 100.187 14.9868C100.402 14.7415 100.57 14.6188 100.693 14.6188C100.938 14.3735 101.276 14.2968 101.705 14.3888C102.134 14.4501 102.502 14.6035 102.809 14.8488C103.177 15.2475 103.376 15.7228 103.407 16.2748C103.468 16.7961 103.254 17.5321 102.763 18.4828C102.395 19.4335 102.042 20.1848 101.705 20.7368C101.398 21.2581 101.092 21.8715 100.785 22.5768C101.122 22.0861 101.536 21.5801 102.027 21.0588C102.518 20.5375 102.901 20.1235 103.177 19.8168C103.576 19.3875 103.944 19.0501 104.281 18.8048C104.649 18.5288 105.14 18.1915 105.753 17.7928C106.274 17.4248 106.796 17.0875 107.317 16.7808C107.869 16.4741 108.528 16.3821 109.295 16.5048C109.602 16.4741 109.924 16.6275 110.261 16.9648C110.629 17.3021 110.905 17.7468 111.089 18.2988C111.304 18.8201 111.304 19.3875 111.089 20.0008C110.384 19.8475 109.755 19.8781 109.203 20.0928C108.651 20.2768 108.176 20.5068 107.777 20.7828C107.409 21.0588 107.118 21.2735 106.903 21.4268C106.596 21.6108 106.244 21.8561 105.845 22.1628C105.446 22.4388 105.017 22.7608 104.557 23.1288C104.097 23.4661 103.606 23.8495 103.085 24.2788C102.349 24.8921 101.797 25.4288 101.429 25.8888C101.061 26.3488 100.77 26.8395 100.555 27.3608C100.371 27.8208 100.141 28.3728 99.8649 29.0168C99.5889 29.6608 99.3282 30.2435 99.0829 30.7648C98.8376 31.2555 98.6382 31.5621 98.4849 31.6848C98.3315 31.9915 98.0095 32.1601 97.5189 32.1908C97.0589 32.2215 96.7369 32.1755 96.5529 32.0528Z" fill="white"/>
<path d="M114.831 32.3288C113.635 31.8381 112.807 31.0408 112.347 29.9368C111.887 28.8328 111.764 27.3608 111.979 25.5208C112.04 24.5701 112.01 23.9415 111.887 23.6348C111.764 23.2975 111.534 22.9755 111.197 22.6688C111.105 22.5461 110.89 22.3468 110.553 22.0708C110.216 21.7641 110.062 21.5341 110.093 21.3808C110.062 21.1661 110.108 20.9055 110.231 20.5988C110.354 20.2615 110.461 20.0775 110.553 20.0468C110.768 19.9548 110.982 19.8475 111.197 19.7248C111.442 19.6021 111.626 19.5715 111.749 19.6328C111.872 19.6328 112.056 19.7095 112.301 19.8628C112.577 20.0161 112.715 20.1541 112.715 20.2768C112.838 20.4915 113.022 20.3995 113.267 20.0008C113.543 19.6021 113.834 19.0961 114.141 18.4828C114.448 17.9921 114.831 17.5321 115.291 17.1028C115.751 16.6735 116.211 16.2901 116.671 15.9528C117.162 15.5848 117.576 15.3088 117.913 15.1248C118.066 15.0635 118.358 14.9715 118.787 14.8488C119.247 14.7261 119.722 14.6341 120.213 14.5728C120.704 14.4808 121.072 14.4501 121.317 14.4808C121.869 14.5115 122.452 14.7415 123.065 15.1708C123.678 15.6001 124.154 15.9988 124.491 16.3668C124.89 16.6428 125.15 17.0721 125.273 17.6548C125.426 18.2068 125.488 18.7895 125.457 19.4028C125.426 20.0161 125.304 20.5375 125.089 20.9668C124.997 21.2735 124.675 21.7028 124.123 22.2548C123.571 22.8068 122.958 23.3435 122.283 23.8648C121.639 24.3555 121.087 24.6928 120.627 24.8768C120.228 24.9688 119.753 25.0455 119.201 25.1068C118.649 25.1375 118.128 25.1375 117.637 25.1068C117.177 25.0455 116.855 24.9688 116.671 24.8768C116.456 24.7541 116.272 24.8001 116.119 25.0148C115.996 25.1988 115.889 25.7201 115.797 26.5788C115.766 26.9161 115.766 27.2075 115.797 27.4528C115.858 27.6981 115.92 27.8821 115.981 28.0048C116.196 28.3728 116.41 28.6488 116.625 28.8328C116.84 28.9861 117.238 29.0321 117.821 28.9708C118.404 28.9095 118.986 28.5568 119.569 27.9128C120.182 27.2381 120.734 26.7015 121.225 26.3028C121.348 26.0881 121.608 25.9501 122.007 25.8888C122.436 25.7968 122.942 25.8275 123.525 25.9808C123.862 26.1955 124.016 26.5328 123.985 26.9928C123.985 27.4528 123.74 28.1275 123.249 29.0168C123.157 29.2315 122.896 29.5535 122.467 29.9828C122.068 30.3815 121.624 30.7955 121.133 31.2248C120.673 31.6235 120.29 31.9148 119.983 32.0988C119.063 32.5895 118.158 32.8195 117.269 32.7888C116.38 32.7581 115.567 32.6048 114.831 32.3288ZM118.235 21.9788C118.695 21.8561 119.078 21.7335 119.385 21.6108C119.722 21.4881 120.044 21.2888 120.351 21.0128C120.658 20.7368 121.01 20.3228 121.409 19.7708C121.532 19.4335 121.593 19.1421 121.593 18.8968C121.624 18.6515 121.608 18.4981 121.547 18.4368C121.302 18.1915 121.026 18.1148 120.719 18.2068C120.443 18.2681 120.136 18.4215 119.799 18.6668C119.584 18.7588 119.278 18.9581 118.879 19.2648C118.511 19.5408 118.143 19.8628 117.775 20.2308C117.438 20.5681 117.162 20.8901 116.947 21.1968C116.763 21.4728 116.732 21.6415 116.855 21.7028C116.794 21.8255 116.962 21.9021 117.361 21.9328C117.79 21.9635 118.082 21.9788 118.235 21.9788Z" fill="white"/>
<path d="M135.99 31.8228C135.07 32.3441 134.089 32.6508 133.046 32.7428C132.034 32.8041 131.084 32.6661 130.194 32.3288C129.305 31.9608 128.584 31.4241 128.032 30.7188C127.726 30.3201 127.434 29.6915 127.158 28.8328C126.882 27.9435 126.836 26.7475 127.02 25.2448C127.204 23.8341 127.634 22.4081 128.308 20.9668C129.014 19.5255 129.872 18.2528 130.884 17.1488C131.896 16.0448 133 15.2935 134.196 14.8948C134.626 14.7415 135.055 14.6341 135.484 14.5728C135.944 14.4808 136.542 14.4655 137.278 14.5268C137.984 14.6188 138.612 14.8028 139.164 15.0788C139.716 15.3241 140.115 15.6001 140.36 15.9068C140.851 16.3975 141.173 16.8728 141.326 17.3328C141.48 17.7928 141.541 18.2375 141.51 18.6668C141.357 19.6481 140.912 20.7061 140.176 21.8408C139.471 22.9755 138.474 23.8188 137.186 24.3708C136.665 24.5855 136.052 24.7235 135.346 24.7848C134.641 24.8461 133.675 24.7541 132.448 24.5088C131.712 24.3555 131.222 24.4321 130.976 24.7388C130.762 25.0455 130.67 25.6435 130.7 26.5328C130.762 27.0848 130.884 27.5755 131.068 28.0048C131.283 28.4035 131.666 28.6795 132.218 28.8328C132.924 28.9555 133.43 28.9708 133.736 28.8788C134.043 28.7561 134.426 28.5875 134.886 28.3728C135.132 28.2195 135.362 28.0508 135.576 27.8668C135.822 27.6828 136.052 27.4988 136.266 27.3148C136.512 27.1308 136.711 26.9928 136.864 26.9008C137.018 26.7781 137.171 26.7015 137.324 26.6708C137.478 26.6401 137.631 26.6248 137.784 26.6248C138.122 26.6555 138.444 26.8395 138.75 27.1768C139.057 27.5141 139.256 27.8361 139.348 28.1428C139.348 28.3881 139.195 28.7408 138.888 29.2008C138.582 29.6301 138.168 30.0901 137.646 30.5808C137.156 31.0408 136.604 31.4548 135.99 31.8228ZM135.392 21.5648C135.607 21.4728 135.914 21.2581 136.312 20.9208C136.742 20.5835 137.125 20.2308 137.462 19.8628C137.8 19.4641 137.968 19.1575 137.968 18.9428C137.968 18.6055 137.738 18.3141 137.278 18.0688C136.849 17.8235 136.282 17.7775 135.576 17.9308C135.331 17.9921 135.04 18.1608 134.702 18.4368C134.365 18.7128 134.028 19.0348 133.69 19.4028C133.353 19.7401 133.062 20.0775 132.816 20.4148C132.571 20.7215 132.402 20.9668 132.31 21.1508C132.433 21.3041 132.678 21.4268 133.046 21.5188C133.414 21.6108 133.813 21.6568 134.242 21.6568C134.702 21.6568 135.086 21.6261 135.392 21.5648Z" fill="white"/>
</svg>
