<svg width="30" height="38" viewBox="0 0 30 38" fill="none" xmlns="http://www.w3.org/2000/svg">
<path d="M7.75201 37.876C7.16934 37.968 6.46401 37.9527 5.63601 37.83C4.80801 37.738 3.91867 37.5693 2.96801 37.324C2.47734 37.1707 2.12467 36.9867 1.91001 36.772C1.72601 36.5573 1.40401 36.1587 0.944006 35.576C0.637339 35.116 0.438006 34.5947 0.346006 34.012C0.284673 33.4293 0.361339 32.908 0.576006 32.448C0.821339 31.988 1.22001 31.712 1.77201 31.62C2.01734 31.5587 2.30867 31.62 2.64601 31.804C3.01401 31.9573 3.39734 32.1567 3.79601 32.402C4.44001 32.77 5.13001 33.138 5.86601 33.506C6.60201 33.9047 7.27667 34.058 7.89001 33.966C8.31934 33.874 8.82534 33.8127 9.40801 33.782C10.0213 33.782 10.604 33.736 11.156 33.644C11.7387 33.552 12.1987 33.3833 12.536 33.138C14.1613 32.034 15.3727 31.16 16.17 30.516C16.9673 29.8413 17.366 29.504 17.366 29.504C17.4273 29.3813 17.5347 29.2893 17.688 29.228C17.872 29.136 18.0867 29.044 18.332 28.952C18.516 28.768 18.8073 28.4767 19.206 28.078C19.6047 27.6487 19.988 27.2347 20.356 26.836C20.7547 26.4373 21 26.2073 21.092 26.146C21.1533 25.87 21.2147 25.6553 21.276 25.502C21.3373 25.318 21.368 25.134 21.368 24.95C21.6133 24.7047 21.9353 24.1987 22.334 23.432C22.7633 22.6347 23.1927 21.7607 23.622 20.81C24.0513 19.8287 24.358 18.9393 24.542 18.142C24.9407 16.4553 25.0787 14.922 24.956 13.542C24.8333 12.162 24.4807 10.92 23.898 9.816C23.3153 8.712 22.5333 7.746 21.552 6.918C21.2147 6.642 20.7547 6.35067 20.172 6.044C19.5893 5.70667 18.9913 5.4 18.378 5.124C17.7647 4.81734 17.2127 4.58734 16.722 4.434C16.262 4.28067 15.986 4.21934 15.894 4.25C15.7713 4.28067 15.526 4.756 15.158 5.676C14.8207 6.56534 14.3913 7.71534 13.87 9.126C13.3793 10.5367 12.8427 12.0547 12.26 13.68C11.708 15.2747 11.1713 16.7927 10.65 18.234C10.4967 18.8167 10.2973 19.43 10.052 20.074C9.83734 20.718 9.65334 21.2853 9.50001 21.776C9.34667 22.236 9.27001 22.5427 9.27001 22.696C8.93267 23.2173 8.58001 24.0147 8.21201 25.088C7.84401 26.1613 7.53734 27.6947 7.29201 29.688C7.01601 30.7307 6.81667 31.6047 6.69401 32.31C6.57134 32.9847 6.44867 33.3067 6.32601 33.276C6.32601 33.276 6.31067 33.414 6.28001 33.69C6.24934 33.9967 6.18801 34.196 6.09601 34.288C6.09601 34.472 5.91201 34.5947 5.54401 34.656C5.17601 34.7173 4.74667 34.6407 4.25601 34.426C3.76534 34.2113 3.30534 33.7973 2.87601 33.184C2.78401 32.8467 2.70734 32.356 2.64601 31.712C2.61534 31.0373 2.72267 30.2553 2.96801 29.366C3.12134 28.7833 3.33601 28.032 3.61201 27.112C3.88801 26.192 4.19467 25.2413 4.53201 24.26C4.86934 23.2787 5.17601 22.374 5.45201 21.546C5.75867 20.718 5.97334 20.1047 6.09601 19.706C6.31067 19.1847 6.61734 18.2033 7.01601 16.762C7.26134 15.9647 7.50667 15.1673 7.75201 14.37C8.02801 13.5727 8.28867 12.8673 8.53401 12.254C8.77934 11.61 8.94801 11.196 9.04001 11.012C9.19334 10.6133 9.37734 9.96934 9.59201 9.08C9.83734 8.16 10.2053 7.11734 10.696 5.952L11.018 4.434L10.512 4.204C10.144 4.32667 9.85267 4.37267 9.63801 4.342C9.45401 4.28067 9.33134 4.23467 9.27001 4.204C9.08601 4.26534 8.84067 4.21934 8.53401 4.066C8.25801 3.882 7.99734 3.652 7.75201 3.376C7.53734 3.1 7.39934 2.87 7.33801 2.686C7.27667 2.56334 7.23067 2.41 7.20001 2.226C7.20001 2.01134 7.20001 1.904 7.20001 1.904C7.23067 1.72 7.49134 1.536 7.98201 1.352C8.47267 1.13734 9.10134 0.938002 9.86801 0.754003C10.6653 0.570003 11.5087 0.432003 12.398 0.340002C13.2873 0.248002 14.1153 0.232669 14.882 0.294003C15.6793 0.355336 16.6607 0.539335 17.826 0.846001C18.9913 1.15267 19.988 1.45934 20.816 1.766C21.7973 2.134 22.8553 2.76267 23.99 3.652C25.1247 4.54134 26.152 5.59934 27.072 6.826C28.0227 8.05267 28.6513 9.34067 28.958 10.69C29.05 11.058 29.142 11.5793 29.234 12.254C29.326 12.9287 29.372 13.588 29.372 14.232C29.4027 14.8453 29.3413 15.244 29.188 15.428C29.1267 15.5507 29.0807 15.704 29.05 15.888C29.05 16.0413 29.1113 16.1487 29.234 16.21C29.2033 16.302 29.096 16.6547 28.912 17.268C28.728 17.8507 28.5593 18.3567 28.406 18.786C28.3447 19.5833 28.13 20.5033 27.762 21.546C27.4247 22.5887 27.0413 23.5853 26.612 24.536C26.2133 25.456 25.8607 26.1767 25.554 26.698C25.4313 26.698 25.3087 26.7287 25.186 26.79C25.094 26.8207 25.1093 26.8513 25.232 26.882C25.232 27.0353 25.0633 27.3267 24.726 27.756C24.6033 27.848 24.404 28.078 24.128 28.446C23.8827 28.7833 23.6833 29.0133 23.53 29.136C23.4993 29.3507 23.4073 29.5347 23.254 29.688C23.1007 29.8107 22.9627 29.872 22.84 29.872C22.84 29.872 22.8093 29.872 22.748 29.872C22.7173 29.872 22.702 29.9333 22.702 30.056C22.4567 30.424 22.0427 30.8993 21.46 31.482C20.8773 32.0647 20.218 32.6627 19.482 33.276C18.746 33.8893 18.01 34.4567 17.274 34.978C16.538 35.4993 15.8633 35.8827 15.25 36.128C14.9433 36.3427 14.6213 36.5113 14.284 36.634C13.9467 36.7873 13.6247 36.9407 13.318 37.094C13.1647 37.2167 12.72 37.324 11.984 37.416C11.248 37.508 10.466 37.5847 9.63801 37.646C8.84067 37.7073 8.21201 37.784 7.75201 37.876Z" fill="black"/>
</svg>
